<svg xmlns="http://www.w3.org/2000/svg" viewBox="0 0 64 64" fill="none">
  <defs>
    <linearGradient id="g" x1="0%" y1="0%" x2="100%" y2="100%">
      <stop offset="0%" style="stop-color:#DEACF5"/>
      <stop offset="50%" style="stop-color:#9754CB"/>
      <stop offset="100%" style="stop-color:#6237A0"/>
    </linearGradient>
    <filter id="b" x="-40%" y="-40%" width="180%" height="180%">
      <feGaussianBlur stdDeviation="2" result="blur"/>
      <feMerge><feMergeNode in="blur"/><feMergeNode in="SourceGraphic"/></feMerge>
    </filter>
  </defs>
  <rect width="64" height="64" rx="16" fill="#28104E"/>
  <path d="M32 14c-4.5 0-8 3.6-8 8v12c0 4.4 3.5 8 8 8s8-3.6 8-8V22c0-4.4-3.5-8-8-8z" stroke="url(#g)" stroke-width="2.5" fill="none" filter="url(#b)"/>
  <path d="M20 30v4c0 7 4.5 12 10 12" stroke="url(#g)" stroke-width="2.5" stroke-linecap="round" fill="none"/>
  <path d="M44 30v4c0 7-4.5 12-10 12" stroke="url(#g)" stroke-width="2.5" stroke-linecap="round" fill="none"/>
  <rect x="28" y="44" width="8" height="6" rx="2" fill="url(#g)" opacity="1"/>
</svg>
